<svg width="30" height="32" viewBox="0 0 30 32" fill="none" xmlns="http://www.w3.org/2000/svg">
<path fill-rule="evenodd" clip-rule="evenodd" d="M24.5 22.46C23.2967 22.46 22.22 22.935 21.3967 23.6792L10.1075 17.1084C10.1867 16.7442 10.25 16.38 10.25 16C10.25 15.62 10.1867 15.2559 10.1075 14.8917L21.27 8.38419C22.125 9.17585 23.2492 9.66669 24.5 9.66669C27.1283 9.66669 29.25 7.54502 29.25 4.91669C29.25 2.28835 27.1283 0.166687 24.5 0.166687C21.8717 0.166687 19.75 2.28835 19.75 4.91669C19.75 5.29669 19.8133 5.66085 19.8925 6.02502L8.73 12.5325C7.875 11.7409 6.75083 11.25 5.5 11.25C2.87167 11.25 0.75 13.3717 0.75 16C0.75 18.6284 2.87167 20.75 5.5 20.75C6.75083 20.75 7.875 20.2592 8.73 19.4675L20.0033 26.0542C19.9242 26.3867 19.8767 26.735 19.8767 27.0834C19.8767 29.6325 21.9508 31.7067 24.5 31.7067C27.0492 31.7067 29.1233 29.6325 29.1233 27.0834C29.1233 24.5342 27.0492 22.46 24.5 22.46Z" fill="#01A299"/>
</svg>
